<?xml version="1.0" encoding="utf-8"?>
<!-- Generator: Adobe Illustrator 21.0.0, SVG Export Plug-In . SVG Version: 6.00 Build 0)  -->
<svg version="1.1" id="Layer_1" xmlns="http://www.w3.org/2000/svg" xmlns:xlink="http://www.w3.org/1999/xlink" x="0px" y="0px"
	 viewBox="0 0 144.3 52.2" style="enable-background:new 0 0 144.3 52.2;" xml:space="preserve">
<polygon points="86.9,1.6 80.4,43 75.8,43 69.1,1.6 64.8,1.6 73.5,50.9 82.4,50.9 91.1,1.6 "/>
<path d="M6.3,1.7c-0.8,0.5-1,1.3-1,2.2L5.2,16.6C5.1,20,6.5,23.5,9.7,25c3.6,1.8,7.6,0,10.4-2.3l0.1-0.3L20.3,4c0.1-0.8-0.3-1.6-1-2
	c-0.2-0.1-0.5-0.1-0.5-0.4l0-0.1c1.7,0.2,3.4,0.1,5.1,0.1c0.1,0,0.1,0,0.1,0.1C23.9,2,23.6,2,23.3,2.2c-0.8,0.7-0.8,1.8-0.8,2.9
	L22.3,23c0.1,1-0.1,2.2,0.9,2.8c0.3,0.2,0.5,0.2,0.8,0.4c0,0,0,0.1-0.1,0.1c-1.5-0.1-3.1-0.3-4.7-0.1c0,0,0-0.1,0-0.1
	c0.9-0.5,1.1-1.6,1.1-2.6c-0.1-0.1-0.2,0.1-0.4,0.2c-3.1,2.3-7.4,3.8-11.4,2.2c-2.7-0.9-4.7-3.8-4.9-6.6c-0.3-2.6-0.1-8.1-0.1-8.1
	c0.1-2.5,0.1-5.2,0-7.7c-0.1-0.8-1-1.5-1.8-1.8c0-0.1,0.1-0.1,0.1-0.1c1.5,0,3,0.2,4.5-0.1h0.3V1.7z M31.1,24.5
	c0,0.5,0.5,0.9,0.9,1.1c0.3,0.1,0.6,0.1,0.8,0.3l-0.1,0.1c-1.7-0.1-4.3-0.1-5.1,0c-0.1-0.3,0.6-0.3,0.9-0.5c0.7-0.4,0.9-1.1,0.9-1.8
	l0.2-20.7c-0.4-0.7-1.2-1.2-1.9-1.4c-0.1-0.1-0.1-0.1-0.1-0.2l0.2-0.1c1.5,0.1,3.1,0.1,4.6-0.1c0.1,0.3-0.2,0.4-0.2,0.7
	c-0.1,0.5,0,1,0.3,1.4l15.2,17.7l0.1-0.1l0.1-16.3c-0.1-0.9,0-1.9-0.9-2.5c-0.3-0.3-0.7-0.2-1-0.5l0.3-0.1c1.5,0.1,3.4,0.1,4.9-0.1
	l0.1,0.1C51.3,1.9,51,1.9,51,2c-0.5,0.1-1,0.3-1.3,0.8c-0.6,1.7-0.3,3.2-0.4,5v0.7l-0.1,17.3c0,0.2,0.1,0.4-0.1,0.5L49,26.2
	l-8.1-9.6c-3.4-3.9-6.6-7.9-10-11.6h0C30.9,8.1,30.6,21.5,31.1,24.5 M59.3,2.3c-1,0.6-0.8,1.3-0.8,2.3c0,0-0.1,18.9,0.2,20.4
	c0.1,0.6,0.7,0.9,1.2,1.2l-0.2,0.1c-1.5-0.3-3.3-0.1-4.9-0.1c-0.1-0.3,0.3-0.2,0.4-0.4c0.3-0.1,0.8-0.3,0.8-0.7l0.2-1V4.4
	c-0.1-0.7-0.1-1.5-0.8-1.9l-0.1-0.2c-0.3-0.3-0.8-0.1-1-0.5l0.1,0c1.8,0.2,3.8,0.2,5.5,0c0.1,0,0.2-0.1,0.4,0
	C60.1,2,59.6,2,59.3,2.3 M103.5,13.8c-1.7-0.1-3.5,0-5.1,0.1l0,0.1c0,3.6-0.1,7.3,0.1,10.9l0.1,0.1c2.5-0.2,5.6,0.2,8.2-0.3
	c0.8-0.2,1.4-1,1.8-1.7c0-0.1,0.1-0.1,0.1,0l0.1,0c-0.2,0.9-0.4,1.6-0.8,2.5c-0.2,0.4-0.7,0.5-1,0.6c-4.2,0-7.9-0.3-12.2,0
	c-0.1-0.1-0.1-0.1-0.1-0.2c0.4-0.2,1.2-0.6,1.4-1.3l0.1-0.9l0-6.5V4.8c-0.1-0.9,0-2.1-0.9-2.7c-0.1-0.2-0.5-0.1-0.5-0.5h0.1
	c3.2,0,6.2,0,9.4-0.1c0.2,0,0.5,0,0.6,0.2c0.4,0.6,0.5,1.2,0.6,1.9c-0.1,0.1-0.2-0.1-0.3-0.1c-0.4-0.8-1.3-1-2.2-1l-4.6,0.1l-0.1,0
	c0,3.4-0.1,6.7,0,10l0.1,0c1.9-0.1,3.9,0.1,5.8-0.3c0.5-0.2,1-0.6,1.2-1.2c0-0.1,0.1-0.1,0.2,0c-0.1,1.2-0.1,2.5-0.1,3.7
	c0,0-0.1,0-0.1,0C105.5,15,105.8,14,103.5,13.8 M123.8,2.5v0.1c0.1,0.9,0.1,1.8-0.1,2.6c0,0.1-0.1,0-0.1,0c-0.6-1.3-2-2.6-3.5-2.8
	c-2-0.5-4.1,0.2-5.2,1.9c-0.7,1.2-0.6,3,0,4.1c0.5,0.9,1.6,1.7,2.4,2.5c2.1,1.7,4.4,3.1,6.5,5c1.4,1.5,1.7,4.1,1,5.9
	c-0.6,1.9-2.4,3.8-4.4,4.1c-2.5,0.6-5-0.1-7.4-0.3c-0.1-1.3-0.2-2.5-0.3-3.9c0-0.1,0.1-0.1,0.3-0.1c0.2,0.4,0.2,0.8,0.4,1.2
	c1,2.3,3.5,2.7,5.7,2.5c1.7-0.1,3.5-1.2,4.1-2.9c0.6-1.6,0.2-3.4-0.8-4.7c-0.8-1-1.9-1.8-2.8-2.5c-2.5-2.1-6.5-4-6.5-7.8
	c-0.1-2.1,0.8-4.1,2.6-5.3C118,1,121.3,1.7,123.8,2.5 M142,4.1c1.3,1.8,1.4,4.7,0.5,6.6c-0.9,2.1-3.1,3.4-5.2,3.5
	c-1,0.1-2.1,0-3-0.1c-0.1,0-0.1-0.1-0.1-0.3l0.2,0c2,0.3,4.1,0.1,5.4-1.5c1.6-1.9,1.5-5.2,0.4-7.2c-0.6-1.4-2.1-2.5-3.6-2.7
	c-1-0.1-2.3,0-3.3,0.3l-0.1,0.1l-0.1,5.2l0,16.1c0.1,0.7,0.5,1.6,1.2,1.8c0.2,0.1,0.5,0,0.6,0.3c-0.3,0.3-0.7,0.1-1,0.1
	c-1.5-0.2-3.1-0.2-4.5,0c-0.1,0-0.2,0-0.3,0l0.1-0.2c0.5-0.2,1.3-0.4,1.7-1l0.1-0.8l0.1-10.4l-0.1-9.7c0-0.9-0.7-1.7-1.4-2.1
	c-0.1-0.1,0-0.2,0.1-0.2C133.9,2,139.3,0.2,142,4.1"/>
<polygon points="73.5,1.6 82.7,1.6 78.1,33.6 73.5,1.6 "/>
</svg>
